<svg width="392" height="305" viewBox="0 0 392 305" fill="none" xmlns="http://www.w3.org/2000/svg">
<path d="M26.502 270.134H388.362C400.151 270.134 379.05 276.29 372.137 283.203C365.224 290.116 365.627 292.992 348.423 298.223C311.423 309.474 295.595 287.451 236.855 296.123C211.828 299.816 179.91 306.873 154.738 303.123C133.538 299.965 128.389 285.506 112.364 284.334C87.764 282.534 75.494 284.302 53.051 283.206C33.821 282.262 -4.25501 270.134 26.502 270.134Z" fill="url(#paint0_linear)"/>
<path d="M302.799 270.134C301.642 230.305 310.646 181.966 342.023 154.529C347.058 150.129 353.215 144.452 360.361 144.968C363.688 145.21 365.336 149.014 365.836 151.836C366.729 156.874 365.859 162.056 364.63 167.023C357.838 194.451 335.439 242.465 329.71 270.134" fill="url(#paint1_linear)"/>
<path d="M355.787 155.701C324.598 196.463 318.987 247.401 319.973 269.448" stroke="#92D0FF" stroke-miterlimit="10"/>
<path d="M329.71 270.134C333.91 244.358 338.322 223.307 353.095 201.77C359.172 192.91 370.879 181.96 380.195 182.87C390.19 183.842 383.095 198.943 377.168 210.214C369.15 225.283 363.612 241.546 360.768 258.377C361.592 253.325 365.098 238.94 375.455 232.548C378.497 230.67 385.978 229.574 385.978 235.799C385.978 246.739 375.345 259.876 372.685 270.139" fill="url(#paint2_linear)"/>
<path d="M377.137 190.819C367.556 202.981 348.452 245.065 346.108 269.37" stroke="#92D0FF" stroke-miterlimit="10"/>
<path d="M380.193 236.708C372.831 244.069 368.315 257.564 365.759 270.134" stroke="#92D0FF" stroke-miterlimit="10"/>
<path d="M93.448 270.134C87.373 219.881 91.787 197.983 97.508 184.064C100.174 177.577 104.008 171.153 109.427 166.577C131.127 148.265 130.465 183.865 129.446 194.656C127.124 219.24 120.962 245.516 120.404 270.134" fill="url(#paint3_linear)"/>
<path d="M73.894 270.134C73.205 254.325 66.149 238.902 57.162 226.143C48.124 213.313 35.691 203.079 27.553 189.601C23.192 182.38 16.294 171.027 26.496 165.101C37.808 158.536 54.425 165.418 63.523 172.925C73.417 181.088 79.923 192.652 85.347 204.073C94.934 224.245 96.858 247.794 97.007 270.129" fill="url(#paint4_linear)"/>
<path d="M76.05 270.134C76.095 254.043 67.897 237.056 54.95 224.487C46.492 216.275 36.373 208.579 24.835 205.192C18.844 203.433 2.10101 200.647 0.422008 210.604C-0.213992 214.375 3.19002 221.466 11.346 227.925C22.685 236.904 54.01 250.864 57.788 270.134" fill="url(#paint5_linear)"/>
<path d="M8.14401 211.082C29.844 216.982 60.095 236.791 65.844 269.746" stroke="#92D0FF" stroke-miterlimit="10"/>
<path d="M31.988 171.366C53.736 182.834 80.26 218.651 83.228 269.746" stroke="#92D0FF" stroke-miterlimit="10"/>
<path d="M117.722 166.282C105.497 195.97 103.368 237.647 104.078 269.746" stroke="#92D0FF" stroke-miterlimit="10"/>
<path d="M60.712 270.134C58.77 261.454 57.064 252.407 51.89 244.934C48.505 240.043 41.606 233.227 35.464 233.334C30.898 233.414 29.864 237.805 30.391 241.759C31.784 252.123 37.531 255.286 39.762 266.492C38.649 262.248 31.799 247.547 25.785 253.168C19.17 259.349 29.034 270.138 29.034 270.138" fill="url(#paint6_linear)"/>
<path d="M28.366 255.9C31.512 259.5 35.551 264.643 37.178 270.134" stroke="#92D0FF" stroke-miterlimit="10"/>
<path d="M37.873 239.69C46.204 248.022 52.022 265.603 53.53 270.133" stroke="#92D0FF" stroke-miterlimit="10"/>
<path d="M237.05 188.202H350.12C358.518 188.202 366.572 184.865 372.51 178.927C378.448 172.989 381.784 164.935 381.784 156.537V156.537C381.784 152.379 380.965 148.261 379.374 144.419C377.783 140.578 375.45 137.087 372.51 134.147C369.57 131.206 366.079 128.874 362.238 127.282C358.396 125.691 354.278 124.872 350.12 124.872H108.72C104.264 124.872 99.9912 123.102 96.8406 119.951C93.69 116.801 91.92 112.528 91.92 108.072V108.072C91.92 105.866 92.3545 103.681 93.1988 101.643C94.0431 99.6046 95.2806 97.7526 96.8406 96.1926C98.4006 94.6326 100.253 93.3951 102.291 92.5508C104.329 91.7065 106.514 91.272 108.72 91.272H311.556C313.509 91.272 315.443 90.8873 317.247 90.1398C319.052 89.3924 320.691 88.2968 322.072 86.9157C323.453 85.5346 324.549 83.895 325.296 82.0906C326.044 80.2861 326.428 78.3521 326.428 76.399V76.399C326.428 74.4459 326.044 72.512 325.296 70.7076C324.549 68.9032 323.453 67.2636 322.072 65.8826C320.691 64.5016 319.052 63.4061 317.247 62.6588C315.443 61.9115 313.509 61.5269 311.556 61.527H125.943C123.773 61.5267 121.692 60.6646 120.158 59.1302C118.624 57.5958 117.762 55.5148 117.762 53.345C117.762 52.2705 117.973 51.2065 118.384 50.2138C118.795 49.2211 119.398 48.319 120.158 47.5592C120.917 46.7993 121.819 46.1965 122.812 45.7852C123.805 45.3739 124.869 45.1621 125.943 45.162H179.91" stroke="#B3D3F4" stroke-miterlimit="10" stroke-dasharray="4 4"/>
<path d="M192.679 18.725C189.06 18.1125 185.34 18.6724 182.061 20.323C178.782 21.9736 176.117 24.6286 174.453 27.9007C172.79 31.1728 172.215 34.8908 172.814 38.5124C173.412 42.134 175.152 45.4697 177.779 48.033L175.454 52.756L180.674 50.317C182.833 51.6686 185.265 52.5246 187.795 52.8233C190.325 53.122 192.889 52.856 195.304 52.0445C197.718 51.2329 199.923 49.896 201.759 48.13C203.595 46.364 205.016 44.2129 205.92 41.8316C206.825 39.4503 207.19 36.898 206.99 34.3586C206.789 31.8192 206.028 29.3558 204.761 27.1459C203.494 24.9359 201.753 23.0344 199.663 21.5783C197.573 20.1222 195.186 19.1477 192.674 18.725H192.679Z" fill="#F3FAFF"/>
<path d="M182.141 43.79L180.36 41.656C180.031 41.2611 179.872 40.7515 179.918 40.2394C179.964 39.7272 180.212 39.2544 180.607 38.925L182.657 37.215C183.052 36.8854 183.562 36.7262 184.074 36.7723C184.586 36.8185 185.059 37.0662 185.389 37.461C185.389 37.461 186.335 38.885 187.446 38.631C188.71 38.341 191.459 36.336 192.939 34.781C193.981 33.681 192.229 31.755 192.229 31.755C192.066 31.5596 191.942 31.3338 191.866 31.0907C191.79 30.8475 191.763 30.5918 191.786 30.338C191.808 30.0843 191.881 29.8375 191.999 29.6119C192.118 29.3862 192.279 29.1861 192.475 29.023L194.524 27.313C194.72 27.1498 194.945 27.0266 195.189 26.9507C195.432 26.8747 195.687 26.8475 195.941 26.8704C196.195 26.8933 196.442 26.966 196.667 27.0844C196.893 27.2027 197.093 27.3643 197.256 27.56L199.036 29.693C203.048 34.5 185.637 47.979 182.141 43.79Z" fill="#B3D3F4"/>
<path d="M267.749 44.839C270.302 42.39 271.359 39.872 274.875 39.085C275.605 38.9902 276.315 38.7746 276.975 38.447C278.687 37.383 278.337 34.957 278.722 33.036C279.479 29.25 284.422 26.858 288.048 28.523C289.565 29.223 290.941 30.506 292.62 30.392C295.977 30.163 295.575 26.023 297.868 23.662C300.035 21.432 304.448 21.14 307.268 22.554C309.194 23.5082 310.883 24.8802 312.212 26.57C313.577 28.338 313.512 31.07 314.524 33.02C315.483 34.904 317.782 35.72 318.784 37.576C319.239 38.3217 319.514 39.1628 319.588 40.033C319.663 40.9033 319.534 41.7789 319.213 42.591C317.78 46.031 313.573 48.514 309.761 48.514H258.247C258.247 48.514 264.905 47.566 267.749 44.839Z" fill="#F3FAFF"/>
<path d="M144.373 20.376C142.215 18.306 141.322 16.176 138.35 15.513C137.733 15.4328 137.133 15.2506 136.575 14.974C135.128 14.074 135.424 12.024 135.099 10.4C134.459 7.2 130.279 5.17901 127.217 6.58601C125.934 7.17601 124.771 8.262 123.352 8.166C120.515 7.973 120.852 4.47401 118.916 2.47801C117.085 0.593007 113.356 0.347003 110.975 1.542C109.346 2.34738 107.918 3.50706 106.796 4.93601C105.642 6.43001 105.696 8.736 104.843 10.387C104.031 11.98 102.088 12.671 101.243 14.238C100.859 14.8684 100.626 15.5793 100.563 16.3149C100.5 17.0505 100.609 17.7906 100.881 18.477C102.092 21.383 105.648 23.482 108.87 23.482H152.406C152.406 23.482 146.779 22.681 144.373 20.376Z" fill="#F3FAFF"/>
<path d="M345.192 67.39L314.934 51.198L322.902 27.547L359.729 46.614L345.192 67.39Z" fill="#CFE0F5"/>
<path d="M359.73 46.617L322.902 27.55L349.154 21.945L359.73 46.617Z" fill="#CFE0F5"/>
<path d="M356.918 42.8115L327.437 27.54L314.537 52.4422L344.018 67.7137L356.918 42.8115Z" fill="#FFF4E1"/>
<path d="M322.902 27.55L310.502 51.493L334.679 49.9L322.902 27.55Z" fill="#E6F1FC"/>
<path d="M359.73 46.617L347.33 70.56L334.679 49.9L359.73 46.617Z" fill="#E6F1FC"/>
<path d="M347.333 70.56L310.506 51.49L338.512 42.617L347.333 70.56Z" fill="#E6F1FC"/>
<path d="M347.333 70.56L310.506 51.49L336.758 45.884L347.333 70.56Z" fill="#E6F1FC"/>
<path d="M102.342 77.405L77.687 83.578L70.287 66.639L99.977 58.774L102.342 77.405Z" fill="#CFE0F5"/>
<path d="M99.979 58.775L70.289 66.64L81.901 50.503L99.979 58.775Z" fill="#CFE0F5"/>
<path d="M96.5405 58.0818L72.773 64.377L78.0906 84.4537L101.858 78.1585L96.5405 58.0818Z" fill="#FFF4E1"/>
<path d="M70.29 66.639L75.403 85.939L87.872 73.039L70.29 66.639Z" fill="#E6F1FC"/>
<path d="M99.979 58.775L105.092 78.075L87.871 73.037L99.979 58.775Z" fill="#E6F1FC"/>
<path d="M105.092 78.078L75.402 85.942L86.351 67.142L105.092 78.078Z" fill="#E6F1FC"/>
<path d="M105.092 78.078L75.402 85.942L87.014 69.805L105.092 78.078Z" fill="#E6F1FC"/>
<path d="M199.37 43.69L200.285 42.262C200.11 41.5058 200.023 40.7321 200.023 39.956C200.008 39.1961 200.15 38.4412 200.441 37.739C200.671 37.614 200.776 39.021 200.874 38.967C200.972 38.913 201.707 36.149 202.12 36.187C202.329 36.207 201.611 38.887 201.611 38.887C201.611 38.887 202.319 35.979 202.646 36.08C202.973 36.181 202.194 38.955 202.194 38.955C202.194 38.955 202.877 36.319 203.152 36.405C203.427 36.491 202.712 39.059 202.712 39.059C202.712 39.059 203.39 36.774 203.54 36.903C203.77 37.103 203.511 38.674 202.855 40.898C202.74 41.283 202.187 42.556 202.155 42.659C202.123 42.762 201.499 45.059 201.499 45.059" fill="#FC8975"/>
<path d="M200.979 39.245C201.385 39.7622 201.641 40.3805 201.72 41.033C201.715 41.4274 201.627 41.8163 201.461 42.174" stroke="#CC6658" stroke-width="0.5" stroke-miterlimit="10"/>
<path d="M167.903 215.911C167.903 215.911 173.25 217.864 173.287 219.445C173.308 220.345 165.53 220.326 165.046 219.726C164.271 218.765 165.617 216.11 165.617 216.11L167.903 215.911Z" fill="#352E72"/>
<path d="M167.787 211.497L167.907 216.047C167.849 216.267 167.727 216.464 167.557 216.615C167.386 216.765 167.175 216.862 166.95 216.892C166.161 216.992 165.617 216.11 165.617 216.11L165.385 210.417" fill="#FC8975"/>
<path d="M171.442 110.19C171.442 110.19 174.354 127.858 172.891 161.756C171.891 184.91 168.765 212.897 167.619 212.928C166.893 212.944 166.167 212.907 165.447 212.819C165.447 212.819 158.156 179.27 157.659 160.375C156.896 131.281 149.222 124.608 152.548 109.488" fill="url(#paint7_linear)"/>
<path d="M168.371 211.09L168.156 213.09L164.956 213.178L164.806 211.178L168.371 211.09Z" fill="#75A1E9"/>
<path d="M151.41 216.364C151.41 216.364 156.757 218.317 156.794 219.898C156.814 220.804 149.037 220.78 148.553 220.179C147.777 219.218 149.124 216.563 149.124 216.563L151.41 216.364Z" fill="#352E72"/>
<path d="M151.294 211.95L151.414 216.5C151.356 216.72 151.234 216.917 151.064 217.068C150.893 217.218 150.682 217.315 150.457 217.345C149.668 217.445 149.124 216.563 149.124 216.563L148.892 210.87" fill="#FC8975"/>
<path d="M162.012 110.453C162.012 110.453 160.64 132.924 158.912 158.862C158.229 169.109 152.344 211.956 151.512 213.374L148.602 213.454C148.602 213.454 144.176 176.375 143.679 157.479C142.915 128.386 139.786 124.87 143.113 109.75" fill="url(#paint8_linear)"/>
<path d="M151.953 211.537L151.738 213.537L148.544 213.625L148.393 211.625L151.953 211.537Z" fill="#75A1E9"/>
<path d="M161.306 121.821C161.306 121.821 160.173 150.534 158.075 167.35" stroke="#4A578E" stroke-width="0.5" stroke-miterlimit="10"/>
<path d="M165.064 50.62C163.241 47.403 158.294 47.89 155.464 49.363C151.453 51.453 150.499 57.408 146.75 59.956C145.091 61.083 143.088 61.746 141.759 63.256C141.018 64.1855 140.529 65.2907 140.34 66.4645C140.151 67.6382 140.269 68.8409 140.681 69.956C141.53 72.1717 143.117 74.0265 145.175 75.207C147.205 76.355 149.405 77.1707 151.693 77.623C155.308 78.456 159.157 78.902 162.664 77.682C166.171 76.462 169.215 73.192 169.202 69.403C169.191 66.197 167.087 63.203 167.455 60.016" fill="#081466"/>
<path d="M199.652 42.602C199.652 42.602 190.076 56.34 187.886 59.467C184.479 64.33 170.486 65.272 162.995 69.703L157.806 70.267C155.341 70.767 146.835 76.822 146.04 79.261C144.225 84.827 142.394 90.474 142.069 96.332C141.959 98.318 142.023 100.31 142.089 102.298C142.183 105.176 142.277 108.054 142.37 110.931C142.357 111.123 142.404 111.315 142.504 111.48C142.645 111.625 142.831 111.718 143.032 111.742C152.432 113.911 162.22 112.742 171.784 111.565C172.125 111.559 172.454 111.443 172.724 111.235C172.984 110.907 173.107 110.491 173.069 110.074C173.12 108.233 173.015 106.393 172.94 104.553C172.624 96.5865 172.904 88.6075 173.78 80.683C176.743 78.824 188.996 74.977 193.097 69.255C198.578 61.6434 201.763 52.6206 202.275 43.255L199.652 42.602Z" fill="url(#paint9_linear)"/>
<path d="M162.995 69.703L162.809 63.13L159.897 63.53L157.81 70.198C158.183 70.6416 158.668 70.9764 159.215 71.1668C159.762 71.3573 160.351 71.3964 160.918 71.28C161.388 71.2758 161.844 71.1201 162.218 70.8359C162.592 70.5518 162.865 70.1545 162.995 69.703Z" fill="#FC8975"/>
<path d="M156.779 60.443C156.572 57.9918 157.275 55.5504 158.753 53.584C160.109 52.073 162.653 51.852 164.524 52.107C165.174 52.1765 165.792 52.4262 166.308 52.828C168.156 54.365 168.033 57.907 167.908 60.077C167.851 61.9302 167.223 63.7204 166.108 65.202C165.762 65.6663 165.306 66.038 164.782 66.284C163.819 66.6274 162.786 66.7282 161.774 66.5775C160.762 66.4268 159.803 66.0292 158.982 65.42C158.291 64.7878 157.738 64.0191 157.359 63.1624C156.98 62.3058 156.782 61.3798 156.779 60.443Z" fill="#FC8975"/>
<path d="M155.95 62.519C155.266 62.839 154.202 63.071 153.67 62.319C153.244 61.719 153.615 60.819 153.77 60.178C154.255 58.1033 154.856 56.0574 155.57 54.05C155.896 53.001 156.37 52.0042 156.979 51.09C158.239 49.355 161.82 48.549 163.925 48.749C166.239 48.596 169.925 52.366 167.908 56.749C167.608 55.675 167.184 55.767 166.394 54.861C165.61 55.6069 164.591 56.0567 163.512 56.133C162.112 56.26 160.495 55.941 159.469 56.921C158.417 57.921 158.635 59.721 157.869 60.967C157.395 61.6611 156.728 62.2008 155.95 62.519Z" fill="#081466"/>
<path d="M158.343 60.882C158.371 60.7695 158.375 60.6523 158.355 60.5381C158.335 60.4239 158.292 60.3151 158.227 60.2187C158.163 60.1224 158.079 60.0406 157.981 59.9786C157.883 59.9167 157.773 59.8759 157.658 59.859C156.594 59.747 156.276 61.417 156.689 62.177C156.995 62.741 157.769 63.205 158.168 62.526" fill="#FC8975"/>
<path d="M160.128 64.8C159.864 64.7775 159.603 64.7347 159.346 64.672C158.547 64.4918 157.839 64.0304 157.352 63.372C157.165 63.1312 157.053 62.8402 157.032 62.536C157.031 62.5037 157.043 62.4723 157.064 62.4485C157.086 62.4248 157.117 62.4106 157.149 62.409C157.165 62.4085 157.181 62.4111 157.196 62.4169C157.211 62.4226 157.225 62.4313 157.236 62.4424C157.248 62.4534 157.257 62.4667 157.263 62.4815C157.27 62.4962 157.273 62.512 157.273 62.528C157.293 62.7832 157.389 63.0267 157.547 63.228C158.001 63.8403 158.659 64.2694 159.403 64.437C160.135 64.5874 160.884 64.6289 161.628 64.56C161.644 64.5591 161.66 64.5615 161.676 64.5669C161.691 64.5723 161.705 64.5806 161.717 64.5914C161.729 64.6023 161.739 64.6153 161.746 64.6299C161.753 64.6445 161.757 64.6604 161.758 64.6765C161.758 64.6927 161.756 64.7088 161.751 64.7241C161.745 64.7393 161.737 64.7534 161.726 64.7654C161.715 64.7774 161.702 64.7872 161.688 64.7942C161.673 64.8011 161.657 64.8052 161.641 64.806C161.137 64.841 160.632 64.839 160.128 64.8Z" fill="#081466"/>
<path d="M162.179 64.37C162.074 64.3191 161.96 64.2898 161.843 64.2836C161.727 64.2774 161.61 64.2945 161.5 64.334C160.733 64.582 161.564 65.578 162.257 65.066C162.314 65.026 162.362 64.9737 162.396 64.913C162.436 64.8119 162.435 64.6994 162.395 64.5985C162.355 64.4976 162.277 64.4159 162.179 64.37Z" fill="#081466"/>
<path d="M155.018 56.556C155.183 54.7519 155.823 53.0238 156.874 51.548C158.223 49.825 160.025 48.406 161.755 48.406C162.494 48.3736 163.232 48.4895 163.925 48.747C162.108 49.182 160.464 50.155 159.208 51.539C157.783 53.0654 156.972 55.0635 156.928 57.151" fill="#75A1E9"/>
<path d="M159.39 59.403C159.521 60.286 159.299 61.1851 158.771 61.9053C158.244 62.6254 157.453 63.1086 156.572 63.25C156.132 63.2739 155.691 63.2108 155.276 63.0643C154.86 62.9178 154.477 62.6909 154.149 62.3964C153.821 62.1019 153.555 61.7456 153.364 61.348C153.174 60.9503 153.064 60.5191 153.041 60.079C152.91 59.1961 153.132 58.2971 153.66 57.577C154.187 56.8569 154.977 56.3736 155.858 56.232C156.298 56.208 156.739 56.271 157.155 56.4174C157.57 56.5638 157.953 56.7908 158.281 57.0853C158.609 57.3798 158.876 57.7361 159.066 58.1338C159.257 58.5315 159.367 58.9628 159.39 59.403Z" fill="#75A1E9"/>
<path d="M157.884 59.712C157.984 60.3022 157.848 60.9079 157.506 61.3989C157.163 61.89 156.642 62.2272 156.054 62.338C155.457 62.3547 154.878 62.1342 154.443 61.7246C154.008 61.3151 153.753 60.75 153.734 60.153C153.634 59.5628 153.77 58.9571 154.112 58.4661C154.455 57.975 154.976 57.6378 155.564 57.527C156.161 57.5106 156.74 57.7312 157.175 58.1407C157.61 58.5501 157.865 59.1151 157.884 59.712Z" fill="#2D4CBA"/>
<path d="M221.562 54.003L114.362 147.867V276.939H328.758V147.867L221.562 54.003Z" fill="url(#paint10_linear)"/>
<path d="M317.922 87.021H125.2V263.618H317.922V87.021Z" fill="url(#paint11_linear)"/>
<path d="M291.679 283.203C289.508 271.896 291.774 260.286 296.292 250.618C299.247 244.294 306.056 235.484 313.649 235.623C319.295 235.723 321.664 241.404 321.99 246.514C322.847 259.914 316.552 264.003 316.59 278.488C316.907 273.001 322.214 255.188 330.502 261.264C338.619 267.216 330.712 283.203 330.712 283.203" fill="url(#paint12_linear)"/>
<path d="M328.308 264.8C325.529 269.46 322.089 276.1 321.551 283.2" stroke="#92D0FF" stroke-miterlimit="10"/>
<path d="M313.179 243.846C305.518 254.618 303.089 277.346 302.452 283.203" stroke="#92D0FF" stroke-miterlimit="10"/>
<path d="M150.003 100.797C150.56 101.215 151.176 101.548 151.831 101.785C152.786 101.637 153.752 101.573 154.718 101.594C155.496 101.651 156.254 101.87 156.941 102.239C157.027 102.482 155.541 102.445 155.583 102.549C155.625 102.653 158.354 103.672 158.234 104.084C158.174 104.292 155.527 103.298 155.527 103.298C155.527 103.298 158.414 104.305 158.247 104.623C158.08 104.941 155.347 103.878 155.347 103.878C155.347 103.878 157.955 104.831 157.814 105.101C157.673 105.371 155.123 104.691 155.123 104.691C155.123 104.691 157.342 105.175 157.223 105.44C155.652 105.397 154.102 105.074 152.645 104.486C151.397 103.996 150.216 103.349 149.131 102.562" fill="#FC8975"/>
<path d="M150.955 81.26C148.555 84.923 142.988 89.152 139.915 91.745C141.679 94.137 151.659 101.588 151.659 101.588L150.732 103.809C150.732 103.809 131.712 100.397 131.106 91.003C130.744 85.383 137.857 77.103 143.381 73.213C148.557 69.567 154.616 68.972 157.806 70.267" fill="url(#paint13_linear)"/>
<path d="M290.214 122.227C288.114 121.365 285.131 118.81 285.476 117.356C285.623 116.736 287.1 118.42 287.515 118.005C287.787 117.733 287.564 116.486 286.807 115.88C286.05 115.274 284.481 114.161 284.866 113.774C285.251 113.387 289.094 114.244 289.955 115.546C290.711 116.993 291.221 118.557 291.464 120.172L293.057 122.227" fill="#FC8975"/>
<path d="M330.451 285.43C330.451 285.43 323.907 287.413 323.913 288.905C323.913 289.76 333.526 289.536 334.106 288.957C335.032 288.03 333.282 285.557 333.282 285.557L330.451 285.43Z" fill="#352E72"/>
<path d="M330.451 281.261V285.561C330.556 285.793 330.726 285.99 330.94 286.128C331.155 286.265 331.405 286.337 331.66 286.334C331.972 286.338 332.28 286.27 332.561 286.136C332.842 286.002 333.089 285.805 333.282 285.561L333.382 280.182" fill="#FC8975"/>
<path d="M322.646 185.753C322.646 185.753 319.623 202.501 322.53 234.453C324.516 256.277 329.289 282.608 330.705 282.608C331.601 282.605 332.495 282.551 333.385 282.448C333.385 282.448 341.306 250.598 341.306 232.748C341.306 205.272 350.57 198.776 345.97 184.593" fill="url(#paint14_linear)"/>
<path d="M329.717 280.89L330.047 282.777H333.997L334.119 280.89H329.717Z" fill="#75A1E9"/>
<path d="M350.845 285.43C350.845 285.43 344.302 287.413 344.308 288.905C344.308 289.76 353.92 289.536 354.499 288.957C355.426 288.03 353.676 285.557 353.676 285.557L350.845 285.43Z" fill="#352E72"/>
<path d="M350.845 281.261V285.561C350.95 285.794 351.12 285.991 351.335 286.128C351.55 286.265 351.8 286.337 352.055 286.334C352.366 286.338 352.674 286.27 352.955 286.136C353.236 286.002 353.483 285.805 353.676 285.561L353.776 280.182" fill="#FC8975"/>
<path d="M334.308 185.753C334.308 185.753 336.731 206.924 339.708 231.358C340.884 241.011 349.548 281.294 350.62 282.611H354.22C354.22 282.611 358.486 247.504 358.486 229.658C358.486 202.182 362.237 198.783 357.636 184.6" fill="url(#paint15_linear)"/>
<path d="M350.017 280.89L350.347 282.777H354.298L354.419 280.89H350.017Z" fill="#75A1E9"/>
<path d="M335.549 196.463C335.549 196.463 337.881 223.531 341.018 239.347" stroke="#4A578E" stroke-width="0.5" stroke-miterlimit="10"/>
<path d="M358.558 182.238C358.558 180.488 359.92 150.303 354.676 143.477C353.193 140.3 347.708 136.702 343.339 135.14C339.485 133.762 337.062 134.84 335.308 135.088C327.939 132.973 311.087 134.388 306.414 131.988C303.842 130.667 291.808 120.238 291.808 120.238L289.558 121.988C289.558 121.988 296.747 137.01 304.83 142.26C310.515 145.953 318.949 148.005 323.457 148.897C323.393 149.724 323.337 150.632 323.29 151.643C323.042 157.032 322.427 166.5 323.053 182.243C323.112 183.743 321.491 185.656 321.491 186.656C321.491 187.656 323.439 190.819 339.644 190.819C353.389 190.819 359.92 188.802 359.92 186.512C359.92 184.148 358.558 183.99 358.558 182.238Z" fill="url(#paint16_linear)"/>
<path opacity="0.75" d="M323.832 142.718C323.832 142.718 323.532 147.881 323.456 148.897" stroke="#707070" stroke-width="0.5" stroke-miterlimit="10"/>
<path d="M334.308 116.606C333.693 119.026 332.199 125.684 333.573 127.77C334.324 128.754 335.385 129.457 336.584 129.765C337.783 130.073 339.051 129.969 340.184 129.47C341.299 128.934 342.286 128.163 343.076 127.211C343.866 126.259 344.442 125.147 344.763 123.952C345.388 121.558 345.574 119.071 345.314 116.61" fill="#FC8975"/>
<path d="M336.951 125.415L335.999 133.485C335.999 133.485 336.345 135.746 337.579 136.609C338.517 136.532 339.42 136.221 340.206 135.704C340.992 135.187 341.636 134.481 342.079 133.651L341.17 123.258" fill="#FC8975"/>
<path d="M342.268 118.842C340.705 118.28 338.558 118.482 336.597 118.149C335.202 118.043 333.825 117.767 332.497 117.327C330.162 116.305 330.375 112.777 332.277 111.437C332.528 111.223 332.819 111.062 333.134 110.963C333.448 110.864 333.779 110.829 334.107 110.86C334.79 111.019 335.043 111.738 335.649 112.009C335.977 112.148 336.336 112.198 336.689 112.153C336.949 112.137 337.199 112.043 337.404 111.883C337.735 111.594 337.872 111.136 338.194 110.829C338.515 110.538 338.908 110.339 339.332 110.25C339.789 110.13 340.266 110.104 340.733 110.176C341.201 110.247 341.648 110.413 342.049 110.664C342.294 110.882 342.57 111.064 342.868 111.202C343.397 111.285 343.916 111.419 344.419 111.602C345.071 112.058 345.613 112.653 346.005 113.345C346.397 114.038 346.629 114.809 346.684 115.602C346.701 115.828 347.074 116.051 347.21 116.209C347.782 116.994 348.172 117.897 348.351 118.852C348.531 119.808 348.495 120.791 348.247 121.73C348.027 123.617 347.126 125.36 345.713 126.63C345.1 127.019 344.429 127.308 343.725 127.486C341.025 128.441 342.394 120.986 342.269 118.837" fill="#352E72"/>
<path d="M342.633 122.981C342.658 122.837 342.717 122.702 342.805 122.586C342.894 122.47 343.009 122.378 343.141 122.316C343.273 122.255 343.419 122.226 343.564 122.234C343.71 122.241 343.851 122.283 343.977 122.357C344.128 122.445 344.256 122.567 344.35 122.714C344.444 122.86 344.502 123.027 344.519 123.201C344.551 123.648 344.433 124.093 344.184 124.465C343.934 124.837 343.568 125.116 343.142 125.256C342.789 125.321 342.413 124.875 342.393 124.532" fill="#FC8975"/>
<path d="M339.796 127.814C340.06 127.793 340.322 127.751 340.579 127.69C341.374 127.517 342.081 127.065 342.573 126.416C342.76 126.182 342.871 125.897 342.893 125.599C342.893 125.583 342.891 125.567 342.885 125.552C342.88 125.538 342.871 125.524 342.86 125.512C342.85 125.501 342.836 125.491 342.822 125.485C342.808 125.478 342.792 125.475 342.776 125.474C342.76 125.473 342.744 125.476 342.729 125.482C342.715 125.487 342.701 125.496 342.689 125.507C342.678 125.517 342.668 125.531 342.662 125.545C342.655 125.559 342.651 125.575 342.651 125.591C342.631 125.841 342.536 126.08 342.378 126.275C341.919 126.877 341.261 127.295 340.522 127.457C339.79 127.604 339.041 127.644 338.297 127.577C338.281 127.575 338.264 127.576 338.248 127.581C338.232 127.586 338.217 127.593 338.204 127.604C338.191 127.615 338.181 127.628 338.173 127.643C338.166 127.658 338.162 127.674 338.161 127.691C338.16 127.707 338.162 127.724 338.168 127.739C338.174 127.755 338.183 127.769 338.195 127.781C338.206 127.793 338.22 127.803 338.235 127.809C338.251 127.815 338.267 127.818 338.284 127.818C338.787 127.852 339.293 127.851 339.796 127.814Z" fill="#081466"/>
<path d="M337.743 127.39C337.956 127.289 338.2 127.276 338.422 127.353C339.189 127.596 338.357 128.571 337.665 128.07C337.608 128.031 337.56 127.98 337.525 127.92C337.486 127.821 337.487 127.71 337.528 127.611C337.568 127.512 337.645 127.433 337.743 127.39Z" fill="#081466"/>
<path d="M344.906 119.754C344.74 117.983 344.098 116.291 343.05 114.854C341.701 113.17 339.898 111.782 338.169 111.782C337.431 111.75 336.693 111.863 335.999 112.116C337.808 112.537 339.451 113.487 340.717 114.846C342.136 116.326 342.949 118.283 342.996 120.332" fill="#75A1E9"/>
<path d="M340.534 122.538C340.518 123.16 340.683 123.773 341.011 124.303C341.338 124.832 341.812 125.255 342.375 125.519C342.939 125.782 343.567 125.876 344.183 125.789C344.799 125.701 345.377 125.436 345.844 125.025C346.312 124.615 346.65 124.077 346.816 123.477C346.983 122.878 346.971 122.243 346.782 121.65C346.593 121.057 346.236 120.532 345.753 120.139C345.271 119.746 344.684 119.503 344.065 119.438C343.186 119.382 342.321 119.677 341.659 120.258C340.997 120.839 340.593 121.659 340.534 122.538Z" fill="#75A1E9"/>
<path d="M342.04 122.839C342.049 123.243 342.174 123.636 342.401 123.97C342.627 124.305 342.946 124.567 343.317 124.725C343.689 124.883 344.099 124.931 344.497 124.862C344.895 124.793 345.265 124.611 345.562 124.337C345.859 124.064 346.071 123.71 346.172 123.319C346.274 122.928 346.26 122.516 346.133 122.133C346.006 121.749 345.771 121.41 345.457 121.157C345.142 120.903 344.761 120.746 344.359 120.704C343.769 120.682 343.194 120.894 342.76 121.294C342.325 121.694 342.067 122.249 342.04 122.839Z" fill="#A2C0ED"/>
<path d="M337.579 180.029H305.223L302.054 160.479C302.022 160.283 302.033 160.083 302.086 159.891C302.14 159.7 302.234 159.523 302.363 159.372C302.491 159.22 302.651 159.099 302.831 159.016C303.011 158.932 303.207 158.889 303.406 158.889H332.244C332.776 158.889 333.291 159.078 333.697 159.423C334.102 159.768 334.372 160.246 334.457 160.772L337.579 180.029Z" fill="#A2C0ED"/>
<path d="M336.642 180.029H304.285L301.116 160.479C301.084 160.283 301.095 160.082 301.149 159.891C301.202 159.7 301.297 159.523 301.425 159.371C301.554 159.22 301.714 159.099 301.894 159.016C302.074 158.932 302.27 158.889 302.469 158.889H331.308C331.84 158.889 332.355 159.079 332.76 159.424C333.165 159.769 333.435 160.247 333.52 160.772L336.642 180.029Z" fill="url(#paint17_linear)"/>
<path d="M320.545 168.943C320.191 167.294 318.937 166.129 317.745 166.337C316.553 166.545 315.871 168.053 316.225 169.703C316.579 171.353 317.833 172.517 319.025 172.308C320.217 172.099 320.898 170.59 320.545 168.943Z" fill="#ABD1FF"/>
<path opacity="0.75" d="M354.679 143.477C353.196 140.3 349.279 138.958 344.909 137.395L343.709 152.159C344.339 157.704 345.333 163.201 346.684 168.616L333.153 178.852L333.173 178.889C333.006 179.01 332.823 179.107 332.629 179.178C332.444 179.178 331.129 178.436 330.437 178.555C329.745 178.674 328.937 178.722 328.937 178.974C328.937 179.226 330.003 179.25 330.003 179.49C330.003 179.73 329.286 180.206 328.958 180.206C328.168 180.135 327.372 180.135 326.582 180.206C326.46 180.348 326.991 181.219 327.524 181.691C328.032 182.035 328.623 182.238 329.235 182.279C330.484 182.252 331.719 182.021 332.893 181.595C333.117 181.435 333.677 181.122 334.221 180.83L334.679 181.677C334.679 181.677 353.115 180.208 358.665 177.677C358.838 168.59 358.793 148.837 354.679 143.477Z" fill="url(#paint18_linear)"/>
<path d="M334.308 178.13C333.769 178.468 333.208 178.769 332.628 179.03C331.928 178.743 331.189 178.564 330.436 178.497C329.736 178.597 328.936 178.639 328.936 178.855C328.936 179.071 330.002 179.091 330.002 179.296C330.002 179.501 329.285 179.908 328.957 179.908C328.166 179.847 327.372 179.847 326.581 179.908C326.459 180.029 326.99 180.774 327.523 181.178C328.047 181.476 328.632 181.647 329.234 181.678C330.475 181.657 331.706 181.46 332.892 181.094C333.384 180.794 335.492 179.865 335.492 179.865" fill="#FC8975"/>
<path d="M343.339 135.14C343.339 135.14 352.808 135.74 357.308 144.488C361.808 153.236 360.402 171.888 357.652 174.635C354.902 177.382 333.952 180.774 333.952 180.774L333.152 178.852L347.902 169.635C347.902 169.635 343.308 154.235 343.308 147.988" fill="url(#paint19_linear)"/>
<path d="M337.572 136.609C338.272 137.531 338.821 138.557 339.199 139.651C342.345 138.614 343.332 135.14 343.332 135.14L342.077 133.651C342.077 133.651 339.605 136.208 337.572 136.609Z" fill="url(#paint20_linear)"/>
<path d="M337.579 136.609C336.879 137.347 336.341 138.223 335.999 139.18C335.199 138.38 334.608 135.491 334.688 135.14C335.096 134.566 335.533 134.013 335.999 133.485C336.196 134.663 336.747 135.752 337.579 136.609Z" fill="url(#paint21_linear)"/>
<path d="M62.087 284.537C62.087 284.537 55.544 286.518 55.55 288.011C55.55 288.867 65.163 288.642 65.742 288.063C66.669 287.136 65.022 284.331 65.022 284.331L62.087 284.537Z" fill="#352E73"/>
<path d="M62.087 280.367V284.667C62.192 284.899 62.3624 285.096 62.5773 285.233C62.7921 285.369 63.0422 285.441 63.297 285.438C63.6083 285.442 63.9164 285.375 64.1975 285.241C64.4787 285.107 64.7255 284.911 64.919 284.667L65.019 279.287" fill="#FC8975"/>
<path d="M64.261 162.224C59.861 167.91 54.698 183.999 54.698 214.54C54.698 236.125 61.698 281.332 61.698 281.332L65.698 281.666C78.488 200.866 74.171 201.7 77.364 187.332C79.364 178.332 75.301 155.632 75.301 155.632" fill="url(#paint22_linear)"/>
<path opacity="0.35" d="M74.85 212.963C74.85 212.963 72.091 197.633 72.091 194.5C70.8975 201.14 70.8975 207.941 72.091 214.581C72.967 218.762 73.877 222.848 73.877 222.848L74.85 212.963Z" fill="url(#paint23_linear)"/>
<path d="M61.527 280.212V281.92C61.527 281.92 65.709 282.62 65.709 282.364C65.709 282.108 65.898 280.398 65.898 280.398L61.527 280.212Z" fill="#75A1E9"/>
<path d="M96.988 284.537C96.988 284.537 103.531 286.518 103.525 288.011C103.525 288.867 93.912 288.642 93.333 288.063C92.406 287.136 94.054 284.331 94.054 284.331L96.988 284.537Z" fill="#352E73"/>
<path d="M96.254 280.367L96.988 284.667C96.883 284.899 96.7126 285.096 96.4977 285.233C96.2828 285.369 96.0328 285.441 95.778 285.438C95.4668 285.442 95.1589 285.375 94.8778 285.241C94.5968 285.107 94.3502 284.911 94.157 284.667L93.32 279.287" fill="#FC8975"/>
<path d="M85.54 159.661C89.873 166.952 97.556 181.983 97.556 212.523C97.556 234.109 96.988 281.317 96.988 281.317L93.556 281.666C82.507 250.815 73.306 211.506 71.148 188.607C70.283 179.428 71.936 155.636 71.936 155.636" fill="url(#paint24_linear)"/>
<path opacity="0.35" d="M86.05 160.531C81.3827 159.127 76.6364 158 71.836 157.157C71.825 157.335 71.813 157.521 71.8 157.725L64.261 162.225C63.1644 163.714 62.2477 165.328 61.53 167.033C64.63 168.22 67.886 168.949 71.196 169.199C77.435 169.756 85.229 168.537 89.229 166.668C88.107 164.214 87.014 162.196 86.05 160.531Z" fill="url(#paint25_linear)"/>
<path d="M97.556 279.89V281.598C97.556 281.598 93.167 282.298 93.167 282.041C93.167 281.784 92.967 280.075 92.967 280.075L97.556 279.89Z" fill="#75A1E9"/>
<path d="M119.885 143.59L121.301 142.818C121.489 142.109 121.759 141.425 122.107 140.78C122.363 140.303 123.2 139.127 123.451 139.127C123.702 139.127 123.164 140.345 123.272 140.345C123.38 140.345 125.237 138.381 125.572 138.601C125.741 138.713 123.935 140.614 123.935 140.614C123.935 140.614 125.835 138.514 126.067 138.751C126.299 138.988 124.401 140.937 124.401 140.937C124.401 140.937 126.157 139.055 126.355 139.253C126.553 139.451 124.795 141.259 124.795 141.259C124.795 141.259 126.395 139.667 126.462 139.843C126.569 140.112 125.647 141.304 124.096 142.854C123.827 143.123 122.788 143.929 122.717 144.002C122.646 144.075 121.086 145.702 121.086 145.702" fill="#FC8975"/>
<path d="M123.236 140.622C123.351 141.234 123.294 141.867 123.069 142.448C122.889 142.775 122.64 143.058 122.34 143.279" stroke="#CC6658" stroke-width="0.5" stroke-miterlimit="10"/>
<path d="M27.295 116.609L26.305 115.337C26.4156 114.612 26.4408 113.877 26.38 113.147C26.3369 112.43 26.1423 111.73 25.809 111.094C25.579 110.994 25.585 112.325 25.486 112.282C25.387 112.239 24.469 109.695 24.075 109.764C24.2102 110.622 24.4451 111.461 24.775 112.264C24.775 112.264 23.875 109.583 23.565 109.703C23.255 109.823 24.219 112.374 24.219 112.374C24.219 112.374 23.36 109.947 23.101 110.049C22.842 110.151 23.729 112.512 23.729 112.512C23.729 112.512 22.902 110.412 22.766 110.548C22.56 110.748 22.93 112.213 23.732 114.253C23.871 114.607 24.502 115.761 24.539 115.853C24.576 115.945 25.354 118.065 25.354 118.065" fill="#FC8975"/>
<path d="M25.407 112.553C25.0567 113.068 24.8569 113.671 24.83 114.294C24.8649 114.665 24.9799 115.024 25.167 115.347" stroke="#CC6658" stroke-width="0.5" stroke-miterlimit="10"/>
<path d="M120.887 142.981C120.887 142.981 106.552 148.263 103.297 148.263C100.61 148.263 96.033 141.003 89.697 136.055C87.1186 134.098 84.2881 132.499 81.282 131.299L69.318 131.048C65.682 131.131 62.0537 131.422 58.451 131.92C52.499 132.728 46.919 132.462 44.322 131.299C39.297 129.048 26.728 115.54 26.728 115.54C26.309 115.486 25.8832 115.534 25.4863 115.678C25.0894 115.823 24.733 116.061 24.447 116.372C24.447 117.04 30.918 135.51 39.447 141.041C45.722 145.109 54.864 145.775 60.572 145.736V149.541C60.572 151.416 58.331 160.656 60.98 163.304C63.413 165.737 72.697 166.041 76.322 166.041C81.697 166.041 87.197 165.187 88.572 163.304C89.261 162.36 89.157 158.154 88.944 154.299C93.244 157.005 97.131 159.699 102.094 159.699C111.384 159.699 122.313 145.166 122.313 145.166L120.887 142.981Z" fill="url(#paint26_linear)"/>
<path opacity="0.75" d="M89.066 156.979L88.945 154.299L84.93 150.234L89.066 156.979Z" fill="url(#paint27_linear)"/>
<path opacity="0.75" d="M60.573 145.736C60.573 145.259 61.38 140.656 61.38 139.923C60.175 142.523 58.346 145.714 58.346 145.714L60.573 145.736Z" fill="url(#paint28_linear)"/>
<path d="M79.239 109.784C82.615 111.884 82.039 116.191 83.404 118.884C84.391 120.828 85.939 122.477 86.084 124.784C86.243 127.305 82.966 128.484 81.209 128.211C77.771 127.678 74.816 129.429 71.353 129.011C68.993 128.725 69.883 127.541 68.344 125.729C67.4473 124.599 66.9201 123.22 66.834 121.78C66.7523 120.349 66.8555 118.913 67.141 117.508" fill="#F42A73"/>
<path d="M72.995 124.39L72.323 130.583L69.323 131.047C69.323 131.047 71.423 134.828 74.751 134.828C78.079 134.828 81.287 131.298 81.287 131.298L78.031 130.29L76.793 121.59" fill="#FC8975"/>
<path d="M68.072 114.29C67.769 116.351 67.7906 118.447 68.136 120.502C68.318 121.529 68.7356 122.5 69.3559 123.338C69.9761 124.176 70.7823 124.86 71.711 125.334C72.5889 125.68 73.5225 125.863 74.466 125.875C76.0533 126.052 77.6528 125.671 78.99 124.798C79.6862 124.188 80.2247 123.418 80.5597 122.555C80.8946 121.692 81.0162 120.76 80.914 119.84C80.6924 118.003 80.1715 116.215 79.372 114.547C78.7147 112.957 78.057 111.368 77.399 109.78" fill="#FC8975"/>
<path d="M60.358 122.539C59.5951 123.257 59.0526 124.178 58.794 125.194C58.7607 125.71 58.886 126.224 59.153 126.667C59.4201 127.109 59.8161 127.46 60.288 127.671C61.0885 127.951 61.9485 128.016 62.782 127.86C63.7453 127.773 64.7158 127.812 65.669 127.976C66.478 128.135 67.252 128.429 68.045 128.655C69.2068 129.026 70.4367 129.133 71.645 128.968C71.7501 128.964 71.8528 128.936 71.9453 128.886C72.0378 128.836 72.1178 128.765 72.179 128.68C72.2109 128.569 72.2178 128.452 72.1991 128.337C72.1805 128.223 72.1367 128.114 72.071 128.019C71.4287 126.405 71.2178 124.651 71.459 122.93C71.5139 122.043 71.6556 121.163 71.882 120.304C72.1008 119.591 72.3719 118.896 72.693 118.223C73.282 116.929 74.016 115.688 74.574 114.385C75.132 113.082 75.459 111.085 77.274 111.344C78.444 111.514 78.941 113.401 79.72 114.55C80.875 113.23 82.175 112.43 79.713 109.303C78.481 107.738 76.382 107.824 74.52 108.164C73.474 108.094 73.547 107.684 72.501 107.613C70.723 107.585 68.9735 108.061 67.4543 108.985C65.9351 109.91 64.7081 111.244 63.915 112.836C62.25 116.332 62.638 119.727 60.358 122.539Z" fill="#F42A73"/>
<path d="M72.087 123.642C71.8235 123.62 71.5621 123.578 71.305 123.516C70.5098 123.342 69.8029 122.89 69.311 122.241C69.1247 122.007 69.0135 121.722 68.992 121.424C68.9936 121.394 69.0064 121.365 69.0281 121.344C69.0497 121.323 69.0785 121.31 69.1088 121.309C69.1391 121.308 69.1687 121.319 69.1917 121.338C69.2147 121.358 69.2294 121.386 69.233 121.416C69.2537 121.666 69.3488 121.904 69.506 122.1C69.9646 122.702 70.6226 123.121 71.362 123.282C72.094 123.429 72.8434 123.469 73.587 123.402C73.6191 123.4 73.6506 123.411 73.6745 123.433C73.6984 123.454 73.7128 123.484 73.7145 123.517C73.7162 123.549 73.7051 123.58 73.6837 123.604C73.6622 123.628 73.6321 123.642 73.6 123.644C73.0963 123.679 72.5907 123.678 72.087 123.642Z" fill="#081466"/>
<path d="M74.14 123.221C73.9271 123.121 73.6833 123.108 73.461 123.185C72.695 123.428 73.525 124.402 74.218 123.901C74.275 123.862 74.3228 123.811 74.358 123.751C74.3973 123.652 74.3965 123.541 74.3559 123.442C74.3152 123.343 74.2378 123.264 74.14 123.221Z" fill="#081466"/>
<path d="M66.979 115.582C67.1454 113.811 67.7866 112.119 68.835 110.682C70.184 108.997 71.986 107.61 73.716 107.61C74.4542 107.578 75.1914 107.691 75.886 107.943C74.0772 108.364 72.4349 109.314 71.169 110.673C69.7498 112.153 68.9363 114.11 68.889 116.16" fill="#081466"/>
<path d="M71.349 118.365C71.3651 118.987 71.1994 119.6 70.8724 120.13C70.5453 120.659 70.071 121.082 69.5075 121.346C68.944 121.61 68.3158 121.703 67.6997 121.616C67.0836 121.528 66.5065 121.263 66.0389 120.852C65.5712 120.442 65.2335 119.904 65.0669 119.304C64.9003 118.705 64.9121 118.07 65.1009 117.477C65.2897 116.884 65.6473 116.359 66.1299 115.966C66.6124 115.573 67.1991 115.33 67.818 115.265C68.697 115.209 69.5624 115.504 70.2243 116.085C70.8862 116.666 71.2907 117.486 71.349 118.365Z" fill="#081466"/>
<path d="M69.843 118.667C69.8338 119.071 69.7084 119.464 69.4817 119.798C69.2551 120.132 68.9368 120.394 68.565 120.552C68.1932 120.71 67.7838 120.758 67.3857 120.689C66.9877 120.62 66.6179 120.438 66.3208 120.164C66.0237 119.89 65.8118 119.537 65.7106 119.146C65.6093 118.755 65.623 118.343 65.75 117.959C65.877 117.576 66.1119 117.237 66.4266 116.984C66.7412 116.73 67.1222 116.573 67.524 116.531C68.1142 116.509 68.6893 116.721 69.1237 117.121C69.5582 117.521 69.8167 118.077 69.843 118.667Z" fill="#2D4CBA"/>
<path d="M267.491 36.14L262.468 38.24C262.34 38.2934 262.228 38.3786 262.142 38.4876C262.056 38.5966 262 38.7257 261.978 38.8627C261.957 38.9996 261.971 39.1398 262.018 39.27C262.066 39.4001 262.147 39.5158 262.252 39.606L265.852 42.706C265.956 42.7957 266.081 42.8576 266.215 42.886C266.349 42.9143 266.488 42.9083 266.619 42.8683C266.751 42.8284 266.869 42.7559 266.965 42.6576C267.061 42.5592 267.13 42.4383 267.166 42.306L268.588 37.106C268.628 36.9591 268.627 36.8037 268.583 36.6577C268.54 36.5117 268.456 36.3808 268.341 36.2801C268.227 36.1794 268.087 36.1129 267.936 36.0881C267.786 36.0633 267.632 36.0813 267.491 36.14V36.14Z" stroke="#CFE0F5" stroke-miterlimit="10"/>
<path d="M51.521 101.749L52.994 106.991C53.0315 107.124 53.1024 107.246 53.2001 107.344C53.2978 107.442 53.4189 107.514 53.5521 107.552C53.6852 107.591 53.8259 107.594 53.9608 107.563C54.0957 107.531 54.2204 107.466 54.323 107.373L57.839 104.173C57.9406 104.081 58.0172 103.964 58.0617 103.835C58.1061 103.705 58.117 103.566 58.0932 103.431C58.0695 103.296 58.0119 103.169 57.9258 103.062C57.8397 102.955 57.728 102.872 57.601 102.82L52.612 100.773C52.4707 100.715 52.3159 100.698 52.1652 100.723C52.0146 100.749 51.8743 100.817 51.7604 100.919C51.6465 101.021 51.5637 101.153 51.5213 101.299C51.479 101.446 51.4789 101.602 51.521 101.749V101.749Z" stroke="#CFE0F5" stroke-miterlimit="10"/>
<path d="M371.103 164.682L374.962 160.84C375.06 160.742 375.132 160.621 375.17 160.488C375.208 160.355 375.212 160.214 375.181 160.079C375.149 159.944 375.084 159.82 374.99 159.717C374.897 159.615 374.779 159.538 374.648 159.494L370.148 157.982C370.018 157.938 369.879 157.928 369.744 157.952C369.609 157.977 369.482 158.035 369.376 158.121C369.269 158.208 369.186 158.32 369.135 158.447C369.083 158.575 369.065 158.713 369.081 158.849L369.726 164.203C369.745 164.353 369.805 164.496 369.901 164.614C369.996 164.732 370.122 164.821 370.266 164.87C370.409 164.92 370.563 164.929 370.711 164.896C370.859 164.862 370.995 164.788 371.103 164.682V164.682Z" stroke="#CFE0F5" stroke-miterlimit="10"/>
<path d="M353.023 105.168L354.441 110.425C354.477 110.559 354.546 110.682 354.642 110.782C354.739 110.882 354.859 110.955 354.992 110.996C355.125 111.036 355.266 111.041 355.402 111.011C355.537 110.981 355.663 110.917 355.767 110.825L359.315 107.666C359.418 107.575 359.496 107.459 359.542 107.33C359.588 107.201 359.6 107.062 359.578 106.926C359.556 106.791 359.499 106.663 359.414 106.556C359.329 106.448 359.218 106.363 359.092 106.31L354.124 104.21C353.984 104.151 353.83 104.132 353.68 104.156C353.53 104.18 353.389 104.245 353.274 104.345C353.16 104.445 353.075 104.575 353.031 104.721C352.986 104.866 352.984 105.021 353.023 105.168Z" stroke="#CFE0F5" stroke-miterlimit="10"/>
<path d="M336.419 94.391L333.948 96.28L335.838 98.7517L338.308 96.8627L336.419 94.391Z" fill="#CFE0F5"/>
<path d="M313.988 73.0274L310.878 73.166L311.017 76.2759L314.127 76.1373L313.988 73.0274Z" fill="#CFE0F5"/>
<path d="M114.068 113.332L111.168 114.462L112.298 117.362L115.199 116.232L114.068 113.332Z" fill="#CFE0F5"/>
<path d="M144.993 38.6255L142.086 37.511L140.972 40.4177L143.878 41.5321L144.993 38.6255Z" fill="#CFE0F5"/>
<path d="M22.6019 192.876L19.492 193.015L19.6307 196.125L22.7406 195.986L22.6019 192.876Z" fill="#CFE0F5"/>
<defs>
<linearGradient id="paint0_linear" x1="203.395" y1="304.19" x2="203.395" y2="270.134" gradientUnits="userSpaceOnUse">
<stop offset="0.005" stop-color="#FCF5F1"/>
<stop offset="0.477" stop-color="#FCEEEC"/>
<stop offset="1" stop-color="#FCE1E3"/>
</linearGradient>
<linearGradient id="paint1_linear" x1="334.452" y1="270.134" x2="334.452" y2="144.935" gradientUnits="userSpaceOnUse">
<stop stop-color="#466DE5"/>
<stop offset="1" stop-color="#78BFFF"/>
</linearGradient>
<linearGradient id="paint2_linear" x1="357.844" y1="270.139" x2="357.844" y2="182.817" gradientUnits="userSpaceOnUse">
<stop stop-color="#466DE5"/>
<stop offset="1" stop-color="#78BFFF"/>
</linearGradient>
<linearGradient id="paint3_linear" x1="141.396" y1="249.154" x2="77.6228" y2="240.808" gradientUnits="userSpaceOnUse">
<stop stop-color="#466DE5"/>
<stop offset="1" stop-color="#78BFFF"/>
</linearGradient>
<linearGradient id="paint4_linear" x1="59.1014" y1="270.134" x2="59.1014" y2="162.468" gradientUnits="userSpaceOnUse">
<stop stop-color="#466DE5"/>
<stop offset="1" stop-color="#78BFFF"/>
</linearGradient>
<linearGradient id="paint5_linear" x1="37.9716" y1="269.267" x2="37.9716" y2="205.647" gradientUnits="userSpaceOnUse">
<stop stop-color="#466DE5"/>
<stop offset="1" stop-color="#78BFFF"/>
</linearGradient>
<linearGradient id="paint6_linear" x1="34.2928" y1="273.156" x2="52.263" y2="241.298" gradientUnits="userSpaceOnUse">
<stop stop-color="#466DE5"/>
<stop offset="1" stop-color="#78BFFF"/>
</linearGradient>
<linearGradient id="paint7_linear" x1="196.593" y1="214.07" x2="196.593" y2="110.212" gradientUnits="userSpaceOnUse">
<stop stop-color="#29225E"/>
<stop offset="1" stop-color="#3F368C"/>
</linearGradient>
<linearGradient id="paint8_linear" x1="208.464" y1="214.076" x2="208.464" y2="110.269" gradientUnits="userSpaceOnUse">
<stop stop-color="#29225E"/>
<stop offset="1" stop-color="#3F368C"/>
</linearGradient>
<linearGradient id="paint9_linear" x1="169.671" y1="84.8144" x2="218.983" y2="67.5318" gradientUnits="userSpaceOnUse">
<stop stop-color="#FCC73C"/>
<stop offset="1" stop-color="#FC7A3C"/>
</linearGradient>
<linearGradient id="paint10_linear" x1="276.231" y1="307.258" x2="145.745" y2="98.1846" gradientUnits="userSpaceOnUse">
<stop stop-color="#B3D3F4"/>
<stop offset="1" stop-color="#D3DCED"/>
</linearGradient>
<linearGradient id="paint11_linear" x1="221.561" y1="263.618" x2="221.561" y2="87.021" gradientUnits="userSpaceOnUse">
<stop stop-color="#FFD5A7"/>
<stop offset="0.372" stop-color="#FFD7AA"/>
<stop offset="0.654" stop-color="#FFDDB3"/>
<stop offset="0.907" stop-color="#FFE8C3"/>
<stop offset="1" stop-color="#FFEECC"/>
</linearGradient>
<linearGradient id="paint12_linear" x1="-210.47" y1="286.486" x2="-184.021" y2="248.481" gradientUnits="userSpaceOnUse">
<stop stop-color="#466DE5"/>
<stop offset="1" stop-color="#78BFFF"/>
</linearGradient>
<linearGradient id="paint13_linear" x1="155.669" y1="80.1655" x2="123.652" y2="98.6611" gradientUnits="userSpaceOnUse">
<stop stop-color="#FCC73C"/>
<stop offset="1" stop-color="#FC7A3C"/>
</linearGradient>
<linearGradient id="paint14_linear" x1="334.259" y1="282.608" x2="334.259" y2="184.593" gradientUnits="userSpaceOnUse">
<stop stop-color="#29225E"/>
<stop offset="1" stop-color="#3F368C"/>
</linearGradient>
<linearGradient id="paint15_linear" x1="347.118" y1="282.611" x2="347.118" y2="184.6" gradientUnits="userSpaceOnUse">
<stop stop-color="#29225E"/>
<stop offset="1" stop-color="#3F368C"/>
</linearGradient>
<linearGradient id="paint16_linear" x1="324.739" y1="150.8" x2="324.739" y2="188.702" gradientUnits="userSpaceOnUse">
<stop stop-color="#FCC73C"/>
<stop offset="1" stop-color="#FC7A3C"/>
</linearGradient>
<linearGradient id="paint17_linear" x1="332.732" y1="183.94" x2="320.843" y2="150.318" gradientUnits="userSpaceOnUse">
<stop stop-color="#5789EE"/>
<stop offset="1" stop-color="#78BFFF"/>
</linearGradient>
<linearGradient id="paint18_linear" x1="326.564" y1="159.837" x2="358.716" y2="159.837" gradientUnits="userSpaceOnUse">
<stop stop-color="#FCC73C"/>
<stop offset="1" stop-color="#FC7A3C"/>
</linearGradient>
<linearGradient id="paint19_linear" x1="346.683" y1="150.838" x2="346.683" y2="183.238" gradientUnits="userSpaceOnUse">
<stop stop-color="#FCC73C"/>
<stop offset="1" stop-color="#FC7A3C"/>
</linearGradient>
<linearGradient id="paint20_linear" x1="340.452" y1="139.651" x2="340.452" y2="133.651" gradientUnits="userSpaceOnUse">
<stop stop-color="#FCAE3C"/>
<stop offset="1" stop-color="#FC7A3C"/>
</linearGradient>
<linearGradient id="paint21_linear" x1="336.13" y1="139.18" x2="336.13" y2="133.485" gradientUnits="userSpaceOnUse">
<stop stop-color="#FCAE3C"/>
<stop offset="1" stop-color="#FC7A3C"/>
</linearGradient>
<linearGradient id="paint22_linear" x1="66.3078" y1="281.666" x2="66.3078" y2="155.632" gradientUnits="userSpaceOnUse">
<stop stop-color="#29225E"/>
<stop offset="1" stop-color="#3F368C"/>
</linearGradient>
<linearGradient id="paint23_linear" x1="73.0229" y1="222.848" x2="73.0229" y2="194.5" gradientUnits="userSpaceOnUse">
<stop stop-color="#29225E"/>
<stop offset="1" stop-color="#3F368C"/>
</linearGradient>
<linearGradient id="paint24_linear" x1="84.2268" y1="281.666" x2="84.2268" y2="155.636" gradientUnits="userSpaceOnUse">
<stop stop-color="#29225E"/>
<stop offset="1" stop-color="#3F368C"/>
</linearGradient>
<linearGradient id="paint25_linear" x1="75.3795" y1="169.335" x2="75.3795" y2="157.157" gradientUnits="userSpaceOnUse">
<stop stop-color="#29225E"/>
<stop offset="1" stop-color="#3F368C"/>
</linearGradient>
<linearGradient id="paint26_linear" x1="73.38" y1="131.534" x2="73.38" y2="166.799" gradientUnits="userSpaceOnUse">
<stop stop-color="#FCC73C"/>
<stop offset="1" stop-color="#FC7A3C"/>
</linearGradient>
<linearGradient id="paint27_linear" x1="86.998" y1="152.372" x2="86.998" y2="157.08" gradientUnits="userSpaceOnUse">
<stop stop-color="#FCC73C"/>
<stop offset="1" stop-color="#FC7A3C"/>
</linearGradient>
<linearGradient id="paint28_linear" x1="58.346" y1="142.829" x2="61.38" y2="142.829" gradientUnits="userSpaceOnUse">
<stop stop-color="#FCC73C"/>
<stop offset="1" stop-color="#FC7A3C"/>
</linearGradient>
</defs>
</svg>
