<svg width="9" height="8" viewBox="0 0 9 8" fill="none" xmlns="http://www.w3.org/2000/svg">
<path d="M8.14997 3.92401C8.14997 4.69536 7.92125 5.44938 7.49271 6.09073C7.06417 6.73208 6.45507 7.23195 5.74244 7.52713C5.02981 7.82231 4.24565 7.89954 3.48913 7.74905C2.7326 7.59857 2.03768 7.22716 1.49225 6.68173C0.946829 6.13631 0.575399 5.44137 0.424917 4.68484C0.274435 3.92832 0.351659 3.14418 0.646841 2.43155C0.942023 1.71892 1.44189 1.10981 2.08324 0.681274C2.72459 0.252737 3.47863 0.0240173 4.24997 0.0240173C5.28432 0.0240173 6.2763 0.434898 7.0077 1.16629C7.73909 1.89768 8.14997 2.88967 8.14997 3.92401V3.92401Z" fill="#00ACE8"/>
<path d="M5.47897 3.92401H4.69696V6.772H3.62897V3.92401H2.91797V2.944H3.62897V2.36801C3.62897 1.56801 3.84697 1.08099 4.78897 1.08099H5.57497V2.06299H5.07896C4.71296 2.06299 4.69096 2.20201 4.69096 2.45401V2.944H5.57697L5.47897 3.92401Z" fill="white"/>
</svg>
