<svg width="9" height="9" viewBox="0 0 9 9" fill="none" xmlns="http://www.w3.org/2000/svg">
<path d="M8.14997 4.147C8.14997 4.91835 7.92125 5.67237 7.49271 6.31372C7.06417 6.95507 6.45507 7.45494 5.74244 7.75012C5.02981 8.0453 4.24565 8.12256 3.48913 7.97208C2.7326 7.82159 2.03768 7.45015 1.49225 6.90472C0.946829 6.3593 0.575399 5.66439 0.424917 4.90787C0.274435 4.15134 0.351659 3.36717 0.646841 2.65454C0.942023 1.94191 1.44189 1.3328 2.08324 0.904266C2.72459 0.475729 3.47863 0.247009 4.24997 0.247009C5.28432 0.247009 6.2763 0.65789 7.0077 1.38928C7.73909 2.12067 8.14997 3.11266 8.14997 4.147V4.147Z" fill="#00ACE8"/>
<path d="M4.24999 2.909C4.00489 2.909 3.7653 2.9817 3.56153 3.11789C3.35775 3.25408 3.19894 3.44765 3.1052 3.6741C3.01145 3.90056 2.98698 4.14971 3.03487 4.39008C3.08276 4.63045 3.20086 4.85124 3.37424 5.02448C3.54762 5.19771 3.76848 5.31562 4.00888 5.36331C4.24929 5.41101 4.49845 5.38632 4.72483 5.29239C4.95121 5.19846 5.14464 5.03952 5.28066 4.83563C5.41668 4.63175 5.48918 4.3921 5.48899 4.147C5.48846 3.81865 5.35772 3.50393 5.12545 3.27185C4.89317 3.03977 4.57834 2.90926 4.24999 2.909V2.909ZM4.24999 4.95999C4.08919 4.95999 3.93201 4.91233 3.79831 4.823C3.66462 4.73366 3.56041 4.60669 3.49887 4.45813C3.43734 4.30957 3.42124 4.14611 3.45261 3.9884C3.48398 3.8307 3.56141 3.68581 3.67511 3.57211C3.78881 3.45841 3.93367 3.38098 4.09137 3.34961C4.24908 3.31824 4.41256 3.33434 4.56111 3.39587C4.70967 3.45741 4.83663 3.56162 4.92597 3.69531C5.0153 3.82901 5.06299 3.98621 5.06299 4.147C5.06299 4.36262 4.97733 4.56943 4.82486 4.72189C4.6724 4.87436 4.46561 4.95999 4.24999 4.95999Z" fill="white"/>
<path d="M5.54099 2.54501C5.46834 2.545 5.39793 2.57017 5.34177 2.61624C5.2856 2.66232 5.24716 2.72645 5.23297 2.7977C5.21879 2.86895 5.22975 2.94288 5.26398 3.00696C5.29821 3.07103 5.35359 3.12127 5.4207 3.14908C5.48781 3.17689 5.5625 3.18056 5.63202 3.15948C5.70154 3.13841 5.7616 3.09387 5.80197 3.03348C5.84234 2.97308 5.86052 2.90058 5.85341 2.82828C5.8463 2.75598 5.81435 2.68837 5.76299 2.63699C5.70399 2.57829 5.62422 2.54525 5.54099 2.54501Z" fill="white"/>
<path d="M5.327 1.74301H3.172C2.82014 1.74301 2.48266 1.88264 2.23367 2.13126C1.98468 2.37987 1.84452 2.71714 1.84399 3.069V5.22501C1.84426 5.57713 1.98425 5.91477 2.23325 6.16376C2.48224 6.41275 2.81987 6.55274 3.172 6.55301H5.327C5.67912 6.55274 6.01676 6.41275 6.26575 6.16376C6.51474 5.91477 6.65473 5.57713 6.655 5.22501V3.069C6.65447 2.71714 6.51433 2.37987 6.26534 2.13126C6.01634 1.88264 5.67886 1.74301 5.327 1.74301V1.74301ZM6.22701 5.22501C6.22701 5.4637 6.13218 5.69261 5.96339 5.86139C5.79461 6.03017 5.56569 6.125 5.327 6.125H3.172C2.9333 6.125 2.70438 6.03017 2.5356 5.86139C2.36682 5.69261 2.272 5.4637 2.272 5.22501V3.069C2.272 2.83031 2.36682 2.6014 2.5356 2.43262C2.70438 2.26383 2.9333 2.16901 3.172 2.16901H5.327C5.56569 2.16901 5.79461 2.26383 5.96339 2.43262C6.13218 2.6014 6.22701 2.83031 6.22701 3.069V5.22501Z" fill="white"/>
</svg>
