<svg width="9" height="9" viewBox="0 0 9 9" fill="none" xmlns="http://www.w3.org/2000/svg">
<path d="M8.524 4.53601C8.524 5.30736 8.29527 6.06138 7.86673 6.70273C7.4382 7.34408 6.8291 7.84395 6.11647 8.13913C5.40383 8.43431 4.61967 8.51154 3.86315 8.36105C3.10662 8.21057 2.41171 7.83916 1.86628 7.29373C1.32086 6.74831 0.949421 6.05337 0.798938 5.29684C0.648456 4.54032 0.725688 3.75618 1.02087 3.04355C1.31605 2.33092 1.81593 1.72181 2.45728 1.29327C3.09863 0.864736 3.85266 0.636017 4.624 0.636017C5.65835 0.636017 6.65033 1.0469 7.38172 1.77829C8.11311 2.50968 8.524 3.50167 8.524 4.53601V4.53601Z" fill="#45E68D"/>
<path d="M2.56402 2.81901H6.67902C6.76725 2.81831 6.85226 2.85202 6.91602 2.913L4.61602 4.88102L2.31602 2.913C2.34901 2.88161 2.38795 2.85712 2.43053 2.84098C2.47312 2.82484 2.5185 2.81737 2.56402 2.81901ZM2.21902 3.11899L3.87902 4.56299L2.21802 5.97501L2.21902 3.11899ZM6.68302 6.25202H2.56402C2.47637 6.25166 2.39195 6.21888 2.32702 6.16001L4.02702 4.701L4.62102 5.22202L5.22102 4.701L6.92102 6.16001C6.85527 6.22114 6.7688 6.25508 6.67902 6.25501L6.68302 6.25202ZM7.02902 5.97202L5.36902 4.56L7.02902 3.11701V5.97202Z" fill="white"/>
</svg>
