<svg width="9" height="8" viewBox="0 0 9 8" fill="none" xmlns="http://www.w3.org/2000/svg">
<path d="M8.524 3.92401C8.524 4.69536 8.29527 5.44938 7.86673 6.09073C7.4382 6.73208 6.8291 7.23195 6.11647 7.52713C5.40383 7.82231 4.61967 7.89954 3.86315 7.74905C3.10662 7.59857 2.41171 7.22716 1.86628 6.68173C1.32086 6.13631 0.949421 5.44137 0.798938 4.68484C0.648456 3.92832 0.725688 3.14418 1.02087 2.43155C1.31605 1.71892 1.81593 1.10981 2.45728 0.681274C3.09863 0.252737 3.85266 0.0240173 4.624 0.0240173C5.65835 0.0240173 6.65033 0.434898 7.38172 1.16629C8.11311 1.89768 8.524 2.88967 8.524 3.92401V3.92401Z" fill="#45E68D"/>
<path d="M6.067 6.32901C5.09575 6.1908 4.19557 5.74115 3.50169 5.04764C2.80782 4.35412 2.35771 3.45418 2.21899 2.483C2.21899 2.483 2.86 1.51999 3.181 1.51999C3.502 1.51999 4.463 2.48299 4.143 2.80099C3.823 3.11899 3.501 3.122 3.501 3.444C3.501 3.766 3.822 4.08501 4.143 4.40701C4.464 4.72901 4.784 5.047 5.106 5.047C5.428 5.047 5.42499 4.72701 5.74599 4.40701C6.06699 4.08701 7.029 5.04701 7.029 5.36801C7.029 5.68901 6.067 6.32901 6.067 6.32901Z" fill="white"/>
</svg>
