<svg width="9" height="9" viewBox="0 0 9 9" fill="none" xmlns="http://www.w3.org/2000/svg">
<path d="M8.14997 4.53601C8.14997 5.30736 7.92125 6.06138 7.49271 6.70273C7.06417 7.34408 6.45507 7.84395 5.74244 8.13913C5.02981 8.43431 4.24565 8.51154 3.48913 8.36105C2.7326 8.21057 2.03768 7.83916 1.49225 7.29373C0.946829 6.74831 0.575399 6.05337 0.424917 5.29684C0.274435 4.54032 0.351659 3.75618 0.646841 3.04355C0.942023 2.33092 1.44189 1.72181 2.08324 1.29327C2.72459 0.864736 3.47863 0.636017 4.24997 0.636017C5.28432 0.636017 6.2763 1.0469 7.0077 1.77829C7.73909 2.50968 8.14997 3.50167 8.14997 4.53601V4.53601Z" fill="#00ACE8"/>
<path d="M6.36699 3.45C6.36699 3.497 6.36699 3.543 6.36699 3.592C6.36699 4.14958 6.21698 4.69687 5.93271 5.17654C5.64843 5.6562 5.24035 6.05058 4.75125 6.31829C4.26215 6.586 3.71002 6.7172 3.15277 6.69814C2.59552 6.67909 2.05366 6.51048 1.58398 6.20998C1.66998 6.21698 1.75698 6.225 1.84398 6.225C2.33657 6.22621 2.81512 6.06094 3.20198 5.756C2.97422 5.75146 2.75356 5.67587 2.57086 5.53979C2.38816 5.4037 2.25255 5.21393 2.18298 4.997C2.24874 5.01072 2.31582 5.01708 2.38298 5.01598C2.4799 5.01701 2.57649 5.00457 2.66998 4.979C2.42307 4.92941 2.20087 4.79601 2.04105 4.60137C1.88122 4.40674 1.79359 4.16285 1.79298 3.911V3.893C1.94461 3.97769 2.11438 4.02468 2.28798 4.02999C2.05663 3.87641 1.89264 3.64033 1.82945 3.36993C1.76627 3.09953 1.80866 2.81521 1.94798 2.575C2.22278 2.91192 2.56518 3.18745 2.95308 3.38381C3.34098 3.58017 3.76577 3.693 4.19998 3.71499C4.18152 3.63295 4.17246 3.54908 4.17299 3.46499C4.1729 3.24606 4.23862 3.03215 4.36162 2.85104C4.48462 2.66992 4.65922 2.52997 4.86276 2.44933C5.0663 2.36869 5.28938 2.3511 5.50305 2.39883C5.71672 2.44656 5.91111 2.55741 6.06099 2.717C6.30745 2.66931 6.54409 2.58039 6.76099 2.454C6.67688 2.70471 6.50639 2.91738 6.27998 3.05401C6.49673 3.02719 6.70834 2.96854 6.90799 2.88C6.76166 3.09948 6.57705 3.29086 6.36298 3.445L6.36699 3.45Z" fill="white"/>
</svg>
