<svg width="9" height="9" viewBox="0 0 9 9" fill="none" xmlns="http://www.w3.org/2000/svg">
<path d="M8.524 4.147C8.524 4.91835 8.29527 5.67237 7.86673 6.31372C7.4382 6.95507 6.8291 7.45494 6.11647 7.75012C5.40383 8.0453 4.61967 8.12256 3.86315 7.97208C3.10662 7.82159 2.41171 7.45015 1.86628 6.90472C1.32086 6.3593 0.949421 5.66439 0.798938 4.90787C0.648456 4.15134 0.725688 3.36717 1.02087 2.65454C1.31605 1.94191 1.81593 1.3328 2.45728 0.904266C3.09863 0.475729 3.85266 0.247009 4.624 0.247009C5.65835 0.247009 6.65033 0.65789 7.38172 1.38928C8.11311 2.12067 8.524 3.11266 8.524 4.147V4.147Z" fill="#45E68D"/>
<path d="M7.029 4.147V4.30701H7.02399C6.98492 4.88806 6.73651 5.43525 6.32481 5.84714C5.9131 6.25902 5.36603 6.50766 4.785 6.547V6.55301H4.464V6.547C3.88289 6.50787 3.3357 6.25928 2.92396 5.84735C2.51221 5.43542 2.26387 4.88813 2.225 4.30701H2.21899V3.987H2.225C2.26308 3.40579 2.51124 2.85827 2.92319 2.4465C3.33514 2.03474 3.88277 1.78682 4.464 1.74899V1.74301H4.785V1.74899C5.36622 1.78682 5.91386 2.03474 6.32581 2.4465C6.73776 2.85827 6.98591 3.40579 7.02399 3.987H7.029V4.147ZM3.588 4.94699H4.464V4.30402H3.504C3.51288 4.52141 3.54099 4.73758 3.588 4.95001V4.94699ZM4.464 6.20901V5.267H3.679C3.7263 5.47516 3.82204 5.66923 3.95844 5.83344C4.09483 5.99764 4.26804 6.12733 4.464 6.21201V6.20901ZM3.504 3.98401H4.464V3.34302H3.588C3.54081 3.55576 3.5127 3.77225 3.504 3.98999V3.98401ZM6.381 3.02301C6.17123 2.69569 5.87449 2.43323 5.52399 2.26501C5.69123 2.49493 5.81898 2.7511 5.902 3.02301H6.381ZM3.681 3.02301H4.467V2.082C4.27042 2.16592 4.09653 2.29524 3.95956 2.45932C3.82259 2.6234 3.72645 2.81759 3.679 3.026L3.681 3.02301ZM2.87 5.267C3.08035 5.59468 3.37732 5.85774 3.728 6.02701C3.56041 5.79658 3.43264 5.53968 3.35 5.267H2.87ZM3.27 3.34302H2.699C2.6137 3.54701 2.56203 3.76348 2.546 3.98401H3.184C3.19236 3.7695 3.21879 3.55608 3.263 3.34601L3.27 3.34302ZM3.19099 4.30402H2.553C2.56904 4.52519 2.62071 4.7423 2.706 4.94699H3.27C3.22356 4.73642 3.19479 4.52236 3.184 4.30701L3.19099 4.30402ZM3.73199 2.26501C3.38102 2.4329 3.08387 2.69541 2.874 3.02301H3.355C3.4342 2.75202 3.55935 2.49664 3.725 2.26801L3.73199 2.26501ZM5.991 3.34302C6.03621 3.55396 6.06297 3.76843 6.071 3.98401H6.709C6.69297 3.76348 6.6413 3.54701 6.556 3.34302H5.991ZM5.531 6.02701C5.88119 5.85741 6.17776 5.59441 6.388 5.267H5.909C5.82326 5.54068 5.69319 5.79843 5.52399 6.03L5.531 6.02701ZM5.991 4.94699H6.556C6.64129 4.7423 6.69296 4.52519 6.709 4.30402H6.071C6.06071 4.52146 6.03161 4.7376 5.984 4.95001L5.991 4.94699ZM4.791 2.082V3.02301H5.577C5.52829 2.81529 5.43115 2.62203 5.29351 2.45901C5.15587 2.296 4.98162 2.16782 4.785 2.08499L4.791 2.082ZM5.666 3.34302H4.791V3.98401H5.75C5.73978 3.76902 5.70965 3.55544 5.66 3.34601L5.666 3.34302ZM5.75 4.30402H4.791V4.94699H5.666C5.71164 4.73651 5.73774 4.52229 5.744 4.30701L5.75 4.30402ZM4.791 5.267V6.20901C4.98679 6.12476 5.15998 5.99557 5.29653 5.83191C5.43309 5.66825 5.52917 5.47471 5.577 5.267H4.791Z" fill="white"/>
</svg>
